<svg xmlns="http://www.w3.org/2000/svg" xmlns:xlink="http://www.w3.org/1999/xlink" width="500" zoomAndPan="magnify" viewBox="0 0 375 374.999991" height="500" preserveAspectRatio="xMidYMid meet" version="1.0"><defs><g/><clipPath id="7db05dcdbb"><path d="M 12.3125 7.0625 L 375 7.0625 L 375 370 L 12.3125 370 Z M 12.3125 7.0625 " clip-rule="nonzero"/></clipPath></defs><g clip-path="url(#7db05dcdbb)"><path fill="#08070b" d="M 12.3125 7.0625 L 326.683594 7.0625 L 374.996094 55.570312 L 374.996094 369.746094 L 60.625 369.746094 L 12.3125 321.433594 Z M 36.613281 297.230469 L 302.480469 297.230469 L 302.480469 31.363281 L 36.613281 31.363281 Z M 36.613281 297.230469 " fill-opacity="1" fill-rule="nonzero"/></g><g fill="#08070b" fill-opacity="1"><g transform="translate(152.875394, 250.851312)"><g><path d="M 93.851562 -46.835938 L 108.566406 -46.835938 L 108.566406 -79.136719 L 48.988281 -79.136719 L 48.988281 -125.433594 L 16.6875 -125.433594 L 16.6875 -79.136719 L 4.484375 -79.136719 L 4.484375 -46.835938 L 16.6875 -46.835938 L 16.6875 0.179688 L 48.988281 0.179688 L 48.988281 -46.835938 L 61.371094 -46.835938 C 63.703125 -10.765625 83.980469 16.328125 109.640625 16.328125 L 109.640625 -15.972656 C 104.617188 -15.972656 95.644531 -27.457031 93.851562 -46.835938 Z M 108.566406 -93.132812 L 108.566406 -125.433594 L 76.085938 -125.433594 L 76.085938 -93.132812 Z M 108.566406 -93.132812 "/></g></g></g><g fill="#08070b" fill-opacity="1"><g transform="translate(60.936726, 172.52026)"><g><path d="M 8.972656 -125.433594 L 8.972656 -51.859375 L 41.273438 -51.859375 L 41.273438 -93.132812 L 58.679688 -93.132812 L 58.679688 0 L 90.980469 0 L 90.980469 -93.132812 L 108.386719 -93.132812 L 108.386719 -62.449219 L 140.867188 -62.449219 L 140.867188 -125.433594 Z M 8.972656 -125.433594 "/></g></g></g></svg>